<svg width="23" height="22" viewBox="0 0 23 22" fill="none" xmlns="http://www.w3.org/2000/svg">
<g id="Group">
<path id="Vector" d="M1.31227 10.3025C1.50963 6.53668 1.60833 4.65327 2.84001 3.54521C4.07169 2.43715 5.95416 2.53481 9.71999 2.73216L13.7145 2.94151C17.4803 3.13887 19.3638 3.23757 20.4718 4.46925C21.5799 5.70093 21.4822 7.5834 21.2849 11.3492L21.1802 13.3465C20.9828 17.1123 20.8841 18.9957 19.6524 20.1038C18.4208 21.2119 16.5383 21.1142 12.7725 20.9168L8.77795 20.7075C5.01211 20.5101 3.1287 20.4114 2.02064 19.1798C0.912584 17.9481 1.01024 16.0656 1.2076 12.2998L1.31227 10.3025Z" stroke="#1596C3" stroke-width="1.5"/>
<path id="Vector_2" d="M6.72441 2.57525L6.80292 1.07731M16.7107 3.09861L16.7892 1.60067M1.9689 7.33289L20.9429 8.32727" stroke="#1596C3" stroke-width="1.5" stroke-linecap="round"/>
<path id="Vector_3" d="M17.029 16.1329C17.0151 16.3978 16.8966 16.6462 16.6995 16.8237C16.5024 17.0012 16.2429 17.0931 15.978 17.0792C15.7132 17.0653 15.4647 16.9468 15.2872 16.7497C15.1098 16.5526 15.0179 16.2931 15.0317 16.0282C15.0456 15.7634 15.1641 15.5149 15.3612 15.3374C15.5583 15.16 15.8179 15.0681 16.0827 15.0819C16.3476 15.0958 16.5961 15.2143 16.7735 15.4114C16.951 15.6085 17.0429 15.868 17.029 16.1329ZM17.2383 12.1384C17.2245 12.4032 17.1059 12.6517 16.9088 12.8292C16.7118 13.0067 16.4522 13.0986 16.1874 13.0847C15.9225 13.0708 15.674 12.9523 15.4966 12.7552C15.3191 12.5581 15.2272 12.2986 15.2411 12.0337C15.255 11.7689 15.3735 11.5204 15.5706 11.3429C15.7677 11.1654 16.0272 11.0735 16.2921 11.0874C16.5569 11.1013 16.8054 11.2198 16.9829 11.4169C17.1603 11.614 17.2522 11.8735 17.2383 12.1384ZM12.0359 15.8712C12.022 16.1361 11.9035 16.3846 11.7064 16.562C11.5093 16.7395 11.2497 16.8314 10.9849 16.8175C10.72 16.8036 10.4715 16.6851 10.2941 16.488C10.1166 16.2909 10.0247 16.0314 10.0386 15.7665C10.0525 15.5017 10.171 15.2532 10.3681 15.0757C10.5652 14.8983 10.8247 14.8064 11.0896 14.8203C11.3544 14.8341 11.6029 14.9527 11.7804 15.1498C11.9578 15.3468 12.0497 15.6064 12.0359 15.8712ZM12.2452 11.8767C12.2313 12.1416 12.1128 12.39 11.9157 12.5675C11.7186 12.745 11.4591 12.8369 11.1942 12.823C10.9294 12.8091 10.6809 12.6906 10.5034 12.4935C10.326 12.2964 10.2341 12.0369 10.2479 11.772C10.2618 11.5072 10.3803 11.2587 10.5774 11.0812C10.7745 10.9038 11.0341 10.8119 11.2989 10.8257C11.5638 10.8396 11.8123 10.9581 11.9897 11.1552C12.1672 11.3523 12.2591 11.6118 12.2452 11.8767ZM7.04271 15.6095C7.02883 15.8744 6.9103 16.1229 6.71321 16.3003C6.51611 16.4778 6.2566 16.5697 5.99174 16.5558C5.72689 16.542 5.4784 16.4234 5.30093 16.2263C5.12347 16.0292 5.03157 15.7697 5.04545 15.5049C5.05933 15.24 5.17785 14.9915 5.37495 14.8141C5.57204 14.6366 5.83156 14.5447 6.09641 14.5586C6.36127 14.5725 6.60976 14.691 6.78722 14.8881C6.96469 15.0852 7.05659 15.3447 7.04271 15.6095ZM7.25205 11.615C7.23817 11.8799 7.11965 12.1284 6.92255 12.3058C6.72546 12.4833 6.46594 12.5752 6.20109 12.5613C5.93623 12.5474 5.68774 12.4289 5.51028 12.2318C5.33281 12.0347 5.24091 11.7752 5.25479 11.5103C5.26867 11.2455 5.3872 10.997 5.58429 10.8195C5.78139 10.6421 6.04091 10.5502 6.30576 10.5641C6.57061 10.5779 6.8191 10.6965 6.99657 10.8936C7.17403 11.0906 7.26593 11.3502 7.25205 11.615Z" fill="#1596C3"/>
</g>
</svg>
