<svg width="15" height="19" viewBox="0 0 15 19" fill="none" xmlns="http://www.w3.org/2000/svg">
<g id="Group">
<path id="Vector" d="M6.25101 3.99984C6.77994 3.99976 7.2891 4.20086 7.6752 4.56237C8.0613 4.92388 8.29543 5.41871 8.33011 5.9465L8.33427 6.08317L8.33414 9.92067L12.0466 10.4257C12.8309 10.5154 13.5579 10.8807 14.0981 11.4563C14.6383 12.0319 14.9567 12.7806 14.9965 13.569L15.0007 13.7373L15.0007 13.9998C15.0013 14.9884 14.7821 15.9648 14.3589 16.8582C14.2639 17.0579 14.0934 17.2116 13.885 17.2856C13.6766 17.3596 13.4473 17.3478 13.2476 17.2528C13.048 17.1577 12.8942 16.9872 12.8202 16.7789C12.7462 16.5705 12.7581 16.3412 12.8531 16.1415C13.1336 15.5495 13.295 14.9082 13.3282 14.254L13.334 13.9998L13.334 13.7373C13.3341 13.3501 13.1993 12.9749 12.9528 12.6762C12.7063 12.3776 12.3635 12.1741 11.9832 12.1007L11.8307 12.0782L8.13825 11.5757C7.75559 11.5305 7.40041 11.3541 7.13317 11.0765C6.86593 10.7989 6.70313 10.4373 6.67247 10.0532L6.66747 9.92067L6.66761 6.08317C6.6678 5.97905 6.62901 5.87863 6.55886 5.80168C6.48871 5.72474 6.3923 5.67685 6.2886 5.66744C6.18491 5.65803 6.08144 5.68779 5.99859 5.75085C5.91574 5.81392 5.8595 5.90571 5.84094 6.00817L5.83427 6.08317L5.83403 13.1665C5.83389 13.339 5.78021 13.5073 5.68039 13.648C5.58057 13.7887 5.43953 13.895 5.27675 13.9521C5.11396 14.0093 4.93745 14.0145 4.77158 13.9671C4.6057 13.9197 4.45864 13.8219 4.35068 13.6873L4.07402 13.3482L3.82153 13.0532C3.33905 12.5057 2.9874 12.2032 2.68823 12.0507C2.51131 11.9554 2.30978 11.9156 2.1099 11.9365L1.9924 11.9532L4.07893 16.1273C4.17328 16.3174 4.19161 16.5362 4.13018 16.7393C4.06875 16.9423 3.93217 17.1143 3.74831 17.2202C3.56444 17.326 3.34713 17.3578 3.14068 17.3089C2.93422 17.2601 2.75417 17.1343 2.63723 16.9573L2.5889 16.8723L0.274894 12.2448C-0.0250852 11.6448 0.197442 10.8423 0.897452 10.5548C1.76663 10.199 2.59247 10.1332 3.44329 10.5648C3.62828 10.6593 3.80994 10.7743 3.98827 10.9098L4.16744 11.0515L4.16761 6.08317C4.16762 5.53064 4.38714 5.00073 4.77785 4.61003C5.16856 4.21933 5.69848 3.99984 6.25101 3.99984ZM6.25112 0.666504C7.0886 0.666349 7.91471 0.860389 8.66453 1.23338C9.41435 1.60637 10.0675 2.14815 10.5726 2.81615C11.0777 3.48415 11.421 4.26018 11.5756 5.08327C11.7301 5.90635 11.6917 6.75408 11.4634 7.55984C11.4357 7.66745 11.3868 7.76844 11.3195 7.85688C11.2523 7.94531 11.168 8.0194 11.0717 8.07478C10.9753 8.13017 10.8689 8.16573 10.7586 8.17937C10.6484 8.19302 10.5365 8.18448 10.4295 8.15424C10.3226 8.12401 10.2228 8.07271 10.136 8.00334C10.0492 7.93397 9.97719 7.84795 9.92413 7.75032C9.87107 7.6527 9.83807 7.54545 9.82707 7.43489C9.81607 7.32432 9.82729 7.21267 9.86007 7.1065C10.0263 6.519 10.0466 5.8998 9.91914 5.3027C9.79169 4.70559 9.52038 4.14864 9.12876 3.68023C8.73714 3.21182 8.23707 2.84612 7.672 2.6149C7.10692 2.38368 6.49392 2.29393 5.88627 2.35346C5.27862 2.41299 4.69468 2.61998 4.1852 2.95647C3.67571 3.29295 3.25609 3.74875 2.96279 4.28426C2.66948 4.81976 2.51136 5.41878 2.50217 6.02927C2.49298 6.63977 2.63299 7.24326 2.91005 7.78734C3.0106 7.98426 3.02881 8.21307 2.96066 8.42342C2.89252 8.63377 2.7436 8.80844 2.54668 8.909C2.34975 9.00956 2.12094 9.02778 1.91059 8.95964C1.70024 8.8915 1.52558 8.74259 1.42502 8.54567C1.00352 7.71981 0.801081 6.79956 0.837082 5.87304C0.873084 4.94652 1.14632 4.04474 1.63063 3.25405C2.11495 2.46335 2.79412 1.81021 3.60313 1.35715C4.41214 0.904089 5.32391 0.666286 6.25112 0.666504Z" fill="#FFFAFA"/>
</g>
</svg>
