<svg width="26" height="26" viewBox="0 0 26 26" fill="none" xmlns="http://www.w3.org/2000/svg">
<g id="fluent:location-16-filled">
<path id="Vector" d="M15.5443 23.0985C18.0348 20.6638 22.4339 15.7258 22.2081 11.4177C22.0832 9.03401 21.0164 6.79759 19.2426 5.20041C17.4687 3.60323 15.1331 2.77612 12.7494 2.90105C10.3657 3.02597 8.12929 4.09269 6.5321 5.86654C4.93492 7.64039 4.10782 9.97606 4.23274 12.3597C4.45852 16.6678 9.34818 21.119 12.081 23.28C12.5798 23.6803 13.2085 23.8831 13.8473 23.8496C14.486 23.8161 15.09 23.5488 15.5443 23.0985ZM10.2245 12.0457C10.1829 11.2512 10.4586 10.4726 10.991 9.88132C11.5234 9.29004 12.2688 8.93447 13.0634 8.89282C13.858 8.85118 14.6365 9.12688 15.2278 9.65928C15.8191 10.1917 16.1747 10.9371 16.2163 11.7317C16.2579 12.5263 15.9822 13.3048 15.4498 13.8961C14.9174 14.4874 14.172 14.843 13.3774 14.8846C12.5829 14.9262 11.8043 14.6505 11.213 14.1181C10.6217 13.5858 10.2662 12.8403 10.2245 12.0457Z" fill="#1596C3"/>
</g>
</svg>
